<svg width="24" height="24" viewBox="0 0 24 24" fill="none" xmlns="http://www.w3.org/2000/svg">
<g id="solar:arrow-up-bold">
<path id="Vector" d="M3.99999 12.75C3.80108 12.75 3.61031 12.671 3.46966 12.5303C3.32901 12.3897 3.24999 12.1989 3.24999 12C3.24999 11.8011 3.32901 11.6103 3.46966 11.4697C3.61031 11.329 3.80108 11.25 3.99999 11.25L13.25 11.25V6C13.2501 5.85176 13.2942 5.70688 13.3766 5.58366C13.459 5.46045 13.5761 5.36442 13.7131 5.30771C13.85 5.251 14.0007 5.23615 14.1461 5.26503C14.2915 5.29392 14.4251 5.36524 14.53 5.47L20.53 11.47C20.6704 11.6106 20.7493 11.8012 20.7493 12C20.7493 12.1987 20.6704 12.3894 20.53 12.53L14.53 18.53C14.4251 18.6348 14.2915 18.7061 14.1461 18.735C14.0007 18.7638 13.85 18.749 13.7131 18.6923C13.5761 18.6356 13.459 18.5395 13.3766 18.4163C13.2942 18.2931 13.2501 18.1482 13.25 18L13.25 12.75L3.99999 12.75Z" fill="#BA68C8"/>
</g>
</svg>
